<svg width="96" height="96" xmlns="http://www.w3.org/2000/svg" xmlns:xlink="http://www.w3.org/1999/xlink" xml:space="preserve" overflow="hidden"><g transform="translate(-395 -231)"><path d="M455.7 270.677C456.088 271.07 456.721 271.073 457.114 270.685 457.117 270.682 457.119 270.68 457.122 270.677L458.712 269.077 460.33 270.7C460.719 271.092 461.352 271.094 461.744 270.705 461.746 270.703 461.747 270.702 461.749 270.7L462.525 269.918C462.711 271.121 462.959 272.315 463.267 273.493 466.221 284.469 460.15 295.853 449.39 299.515L445.518 300.58C444.345 300.817 443.155 300.963 441.96 301.018L438.111 300.918C428.998 300.116 421.326 293.77 418.829 284.969L418.58 284.093 417.757 283.706C416.697 283.229 416.012 282.177 416.005 281.014 416.017 280.737 416.064 280.464 416.145 280.199L416.561 278.536 414.981 277.87C413.8 277.411 413.018 276.279 413.005 275.012 413.004 274.593 413.103 274.179 413.294 273.806L414.04 272.313 412.705 271.313C411.595 270.505 410.957 269.2 411 267.828 411.199 265.616 413.085 263.942 415.305 264.006L415.432 264.006C419.877 264.166 422.11 266.662 424.695 269.553 427.822 273.048 431.365 277.01 439.005 277.01L443.005 277.01C446.928 277.042 450.648 275.264 453.088 272.192 453.425 271.754 453.343 271.125 452.905 270.788 452.466 270.45 451.837 270.533 451.5 270.971 449.433 273.546 446.302 275.034 443 275.012L439 275.012C426.1 275.012 426.6 262.412 415.5 262.012 415.434 262.012 415.367 262.012 415.3 262.012 411.978 261.854 409.156 264.418 408.998 267.741 408.901 269.779 409.843 271.728 411.5 272.918 411.171 273.569 411 274.289 411 275.018 411.017 277.088 412.281 278.943 414.2 279.718 414.077 280.141 414.01 280.578 414 281.018 414.011 282.954 415.142 284.708 416.9 285.518 419.609 295.156 428.022 302.096 438 302.923L439.009 302.948C439.009 302.967 438.998 302.983 438.998 303.003L438.998 311.003 437 311.003C436.448 311.003 436 311.451 436 312.003 436 312.555 436.448 313.003 437 313.003L439.59 313.003 443.3 316.707C443.684 317.104 444.317 317.115 444.714 316.732 445.111 316.348 445.122 315.715 444.739 315.318 444.73 315.309 444.722 315.301 444.714 315.293L442.418 313 448 313C448.552 313 449 312.552 449 312 449 311.448 448.552 311 448 311L441 311 441 303 442 303.025C443.344 302.963 444.682 302.796 446 302.525L447.039 302.239C447.018 302.304 447.004 302.371 446.998 302.439L446.998 306 445 306C444.448 306 444 306.448 444 307 444 307.552 444.448 308 445 308L447.59 308 451.3 311.707C451.684 312.104 452.317 312.115 452.714 311.732 453.111 311.348 453.122 310.715 452.739 310.318 452.73 310.309 452.722 310.301 452.714 310.293L450.418 308 456 308C456.552 308 457 307.552 457 307 457 306.448 456.552 306 456 306L449 306 449 302.437C448.998 302.189 448.903 301.95 448.734 301.769L450.003 301.42C461.762 297.433 468.411 285.007 465.203 273.012 464.817 271.565 464.536 270.093 464.362 268.606L464.162 265.729C464.124 265.177 463.646 264.76 463.094 264.797 462.541 264.835 462.124 265.314 462.162 265.866L462.262 267.338 461.039 268.58 459.425 266.954C459.036 266.562 458.403 266.559 458.011 266.948 458.009 266.95 458.007 266.952 458.005 266.954L456.415 268.554 455.422 267.554 455.836 266.034 455.854 265.967 455.868 265.9C455.979 265.275 456.025 264.641 456.007 264.007L456.007 254.293C455.95 250.331 459.108 247.07 463.069 247 466.939 247.041 470.044 250.211 470.003 254.081 470.003 254.131 470.002 254.18 470 254.23 469.796 257.781 467.031 260.652 463.49 260.99L462.89 261.057C462.347 261.121 461.96 261.613 462.024 262.156 462.088 262.699 462.58 263.086 463.123 263.022L464.9 262.8C467.964 262.137 470.463 259.931 471.5 256.973 472.994 256.716 474.521 256.729 476.011 257.009 474.917 255.528 473.544 254.275 471.971 253.319 471.841 251.576 471.203 249.909 470.135 248.525 471.205 247.421 471.628 245.841 471.251 244.35 470.977 243.223 470.266 242.252 469.275 241.65 468.267 241.027 467.053 240.83 465.9 241.1 464.228 239.629 461.725 239.629 460.053 241.1 459.721 241.021 459.38 240.981 459.039 240.981 457.081 240.983 455.352 242.26 454.774 244.131 452.903 244.709 451.626 246.438 451.624 248.396 451.616 250.084 452.668 251.595 454.254 252.173 454.09 252.871 454.006 253.585 454.003 254.302L454.003 264.002C454.02 264.504 453.986 265.007 453.903 265.502L453.546 266.809C453.533 266.846 453.5 266.954 453.458 267.092 453.273 267.703 453.436 268.367 453.883 268.823ZM462.4 245.019C459.124 245.268 456.246 247.289 454.9 250.286 454.122 249.986 453.615 249.233 453.628 248.4 453.616 247.053 454.699 245.951 456.047 245.939 456.251 245.937 456.455 245.961 456.653 246.01 456.335 244.695 457.143 243.372 458.458 243.054 459.246 242.864 460.076 243.075 460.677 243.619 461.136 242.347 462.54 241.688 463.812 242.147 464.497 242.394 465.037 242.934 465.284 243.619 466.277 242.704 467.823 242.766 468.739 243.759 469.603 244.696 469.602 246.14 468.737 247.076 466.969 245.604 464.703 244.867 462.407 245.019Z"/><path d="M467.004 252.5C467.004 253.328 466.332 254 465.504 254 464.676 254 464.004 253.328 464.004 252.5 464.004 251.672 464.676 251 465.504 251 466.332 251 467.004 251.672 467.004 252.5Z"/></g></svg>