<svg width="96" height="96" xmlns="http://www.w3.org/2000/svg" xmlns:xlink="http://www.w3.org/1999/xlink" xml:space="preserve" overflow="hidden"><g transform="translate(-324 -305)"><path d="M374.112 386.15C374.068 386.144 374.024 386.141 373.98 386.141L370.02 386.141C374.094 383.178 376.511 378.45 376.527 373.412 376.527 366.584 375.043 363.583 370.42 361.061 369.942 360.785 369.33 360.949 369.054 361.428 368.778 361.906 368.942 362.518 369.421 362.793 369.434 362.801 369.448 362.809 369.462 362.816 373.438 364.986 374.527 367.264 374.527 373.416 374.527 380.236 370 384.171 366.202 386.27 365.719 386.537 365.544 387.146 365.811 387.629 365.987 387.947 366.322 388.145 366.686 388.145L373.907 388.145C374.949 388.329 375.659 389.306 375.512 390.354 375.325 391.345 374.447 392.054 373.439 392.029L359.823 392.029C359.391 392.029 357.414 391.26 355.628 387.5 355.628 387.49 355.614 387.485 355.609 387.475 355.574 387.418 355.534 387.364 355.489 387.315 355.451 387.261 355.408 387.211 355.36 387.165 355.352 387.158 355.348 387.147 355.339 387.14 355.1 386.954 354.825 386.745 354.521 386.514 350.781 383.67 343 377.762 343 369 343 363.855 345.127 359.957 347.185 356.187 347.418 355.759 347.65 355.335 347.876 354.912 352.241 346.768 351.689 338.721 346.399 333.385 346.017 332.986 345.384 332.973 344.985 333.355 344.586 333.737 344.573 334.37 344.955 334.769 344.963 334.777 344.971 334.785 344.979 334.793 349.686 339.541 350.1 346.53 346.114 353.967 345.889 354.385 345.66 354.806 345.429 355.229 343.353 359.033 341 363.345 341 369 341 378.754 349.627 385.305 353.311 388.1 353.546 388.278 353.748 388.433 353.945 388.585 355.791 392.328 358.211 394.022 359.823 394.022L373.439 394.022C375.453 394.057 377.184 392.6 377.494 390.609 377.786 388.445 376.275 386.452 374.112 386.15Z"/><path d="M389.6 363.886C389.6 363.911 389.239 366.416 386.264 371.359 386.099 371.633 385.764 372.211 385.764 372.211 385.659 372.365 385.601 372.547 385.596 372.733L385.596 387C385.596 387.552 386.044 388 386.596 388L387.483 388C388.488 387.977 389.366 388.677 389.568 389.662 389.755 390.751 389.023 391.785 387.935 391.971 387.824 391.99 387.712 392 387.6 392L383.527 392C382.422 392 381.527 391.105 381.527 390L381.527 377.393C381.527 376.841 381.079 376.393 380.527 376.393 379.975 376.393 379.527 376.841 379.527 377.393L379.527 390C379.527 392.209 381.318 394 383.527 394L387.418 394C389.519 394.036 391.311 392.485 391.577 390.4 391.795 388.199 390.188 386.238 387.987 386.02 387.858 386.007 387.729 386 387.6 386L387.6 373.015C391.033 367.479 391.537 364.524 391.588 364.156 392.068 361.894 392.273 359.582 392.2 357.27L392.2 356.741C392.278 353.783 391.857 350.833 390.957 348.014 390.489 346.701 390.246 345.317 390.239 343.923 390.302 342.297 391.663 341.024 393.29 341.07 398.114 340.977 401.981 337.05 402 332.225 402.021 331.383 401.751 330.559 401.235 329.893L393.176 318.186 393.176 315.069C393.197 314.339 392.828 313.654 392.207 313.269 391.442 312.815 390.468 312.928 389.827 313.544L376.3 326.2C374.534 327.868 373.533 330.189 373.533 332.618L373.533 333.206C373.533 335.725 370.764 337.971 367.258 340.814 360.39 346.385 350.983 354.014 350.983 371.451 350.928 374.569 351.165 377.685 351.688 380.759 351.778 381.23 352.19 381.57 352.669 381.571 352.733 381.571 352.797 381.565 352.859 381.552 353.401 381.448 353.756 380.924 353.652 380.382 353.153 377.432 352.929 374.442 352.983 371.451 352.983 354.967 361.962 347.685 368.518 342.368 372.437 339.189 375.533 336.678 375.533 333.206L375.533 332.618C375.532 330.742 376.304 328.949 377.667 327.66L391.167 314.982C391.171 314.978 391.177 314.978 391.181 314.982 391.183 314.984 391.184 314.986 391.184 314.989L391.184 318.5C391.184 318.703 391.246 318.9 391.361 319.067L399.639 331.088C400.274 331.882 400.073 333.088 399.158 335.052 398.039 337.422 395.695 338.974 393.076 339.079 390.43 339.138 388.3 341.27 388.243 343.916 388.249 345.509 388.519 347.09 389.043 348.595 389.889 351.225 390.28 353.98 390.2 356.741L390.2 357.279C390.272 359.458 390.079 361.638 389.626 363.771Z"/><path d="M393.999 326.5C393.999 327.328 393.327 328 392.499 328 391.671 328 390.999 327.328 390.999 326.5 390.999 325.672 391.671 325 392.499 325 393.327 325 393.999 325.672 393.999 326.5Z"/></g></svg>