<svg width="96" height="96" xmlns="http://www.w3.org/2000/svg" xmlns:xlink="http://www.w3.org/1999/xlink" xml:space="preserve" overflow="hidden"><g transform="translate(-592 -312)"><path d="M677.348 367.096 674.278 363.408C674.93 358.774 672.432 354.27 668.156 352.368L664.479 351.136C663.571 350.839 662.622 350.689 661.667 350.691L661.149 350.696C660.737 350.695 660.325 350.727 659.917 350.792 659.061 350.934 658.225 351.179 657.427 351.52L648.77 354.305C648.732 354.317 648.695 354.332 648.659 354.349 648.46 354.44 648.257 354.522 648.048 354.596 645.364 355.446 642.429 354.732 640.436 352.743L632.693 345.765C626.275 340.04 616.554 340.145 610.261 346.007 610.115 346.145 609.981 346.291 609.843 346.435 606.836 342.484 607.601 336.844 611.551 333.836 613.119 332.643 615.036 331.998 617.006 332 617.558 332 618.006 331.552 618.006 331 618.006 330.448 617.558 330 617.006 330 610.933 329.998 606.008 334.92 606.006 340.993 606.005 343.567 606.907 346.06 608.555 348.037 606.173 351.617 605.956 356.218 607.989 360.007L609.332 362.502C610.293 364.285 610.953 366.214 611.285 368.212L611.356 368.636C611.457 369.235 611.279 369.847 610.872 370.299L608.025 373.478C607.368 374.211 607.004 375.162 607.005 376.146L607.005 381.042C607.005 381.124 607.015 381.205 607.035 381.285L608.467 387.012C608.91 388.794 610.511 390.044 612.347 390.042L617.001 390.042C617.553 390.042 618 389.594 618.001 389.043L618.003 386.444C618.003 384.721 616.716 383.27 615.005 383.065L615.005 376.96C618.944 376.766 622.698 375.232 625.646 372.613L627.56 375.139C630.216 378.786 634.257 381.178 638.732 381.755 640.103 381.815 641.323 382.641 641.887 383.892L642.806 386.353C643.355 387.813 644.552 388.935 646.044 389.391L658.602 393.185C658.696 393.214 658.793 393.228 658.891 393.228L665.887 393.228C666.439 393.228 666.887 392.781 666.887 392.229L666.889 389.63C666.89 387.753 665.369 386.229 663.492 386.228 663.491 386.228 663.49 386.228 663.489 386.228L661.026 386.228 654.614 384.465 657.492 375.341 661.944 370.078 666.87 372.193C670.921 374.001 675.672 372.191 677.492 368.145 677.648 367.797 677.592 367.39 677.348 367.096ZM648.712 356.482C648.959 356.395 649.201 356.298 649.437 356.191L649.569 356.149 659.062 370.388 657.61 372.104 647.42 356.82C647.859 356.742 648.291 356.629 648.712 356.482ZM655.645 374.547 652.394 384.854C652.392 384.86 652.394 384.866 652.392 384.872 652.39 384.878 652.385 384.883 652.383 384.889 652.373 384.95 652.369 385.012 652.37 385.074 652.36 385.138 652.355 385.202 652.357 385.266 652.369 385.331 652.388 385.393 652.412 385.454 652.427 385.514 652.447 385.574 652.472 385.631 652.507 385.684 652.547 385.734 652.591 385.78 652.628 385.832 652.67 385.881 652.716 385.925 652.771 385.963 652.831 385.996 652.893 386.023 652.942 386.056 652.993 386.084 653.047 386.108 653.053 386.11 653.059 386.108 653.065 386.11 653.071 386.112 653.076 386.117 653.083 386.119L660.627 388.192C660.713 388.216 660.802 388.228 660.892 388.228L663.49 388.228C664.263 388.228 664.89 388.855 664.89 389.628L664.888 391.228 659.039 391.228 646.622 387.477C645.727 387.203 645.01 386.53 644.68 385.654L643.77 383.218C642.959 381.234 641.081 379.891 638.941 379.766 635.016 379.248 631.477 377.138 629.154 373.932L627.091 371.207C627.325 370.959 627.557 370.706 627.786 370.446 629.906 368.13 630.945 365.023 630.645 361.897 630.593 361.348 630.105 360.944 629.555 360.996 629.005 361.049 628.602 361.537 628.654 362.086 628.655 362.1 628.657 362.114 628.659 362.128 628.892 364.689 628.031 367.23 626.287 369.122 623.304 372.499 620.199 374.667 613.946 375.041 613.891 375.05 613.837 375.064 613.784 375.083 613.718 375.094 613.653 375.111 613.59 375.135 613.534 375.165 613.481 375.201 613.432 375.241 613.319 375.302 613.228 375.398 613.175 375.514 613.137 375.566 613.105 375.621 613.078 375.678 613.059 375.742 613.045 375.806 613.039 375.872 613.023 375.927 613.011 375.982 613.005 376.039L613.005 384.042C613.005 384.594 613.453 385.042 614.005 385.042L614.603 385.042C615.376 385.042 616.003 385.669 616.003 386.442L616.002 388.042 612.347 388.042C611.429 388.043 610.628 387.418 610.407 386.527L609.005 380.919 609.005 376.147C609.005 375.655 609.186 375.179 609.515 374.812L612.362 371.634C613.175 370.731 613.531 369.505 613.328 368.307L613.257 367.883C612.889 365.668 612.158 363.53 611.093 361.553L609.749 359.059C607.683 355.212 608.455 350.458 611.631 347.462 617.164 342.309 625.712 342.217 631.354 347.25L639.076 354.208C640.71 355.776 642.832 356.736 645.089 356.928L656.265 373.693 655.835 374.202C655.75 374.304 655.685 374.421 655.645 374.547ZM667.674 370.361 662.052 367.948C661.648 367.775 661.178 367.885 660.894 368.221L660.406 368.799 651.548 355.512C651.548 355.512 658.145 353.378 658.514 353.252 658.527 353.247 658.524 353.256 658.518 353.268L657.216 355.879C656.738 356.772 656.553 357.792 656.686 358.796 656.928 360.349 657.88 361.7 659.261 362.451 659.614 362.64 659.989 362.784 660.377 362.88 660.736 362.968 661.104 363.013 661.473 363.013 662.377 363.008 663.26 362.746 664.021 362.258 664.802 361.73 665.439 361.014 665.872 360.176 666.111 359.678 665.901 359.081 665.403 358.842 664.912 358.607 664.324 358.807 664.078 359.293 663.803 359.812 663.406 360.256 662.922 360.588 662.309 360.982 661.562 361.108 660.854 360.938 660.634 360.884 660.422 360.803 660.221 360.698 659.387 360.25 658.81 359.436 658.664 358.5 658.596 357.901 658.716 357.295 659.008 356.767L661.036 352.701C661.082 352.7 661.119 352.697 661.168 352.696L661.678 352.691C662.414 352.685 663.145 352.8 663.843 353.033L667.43 354.229C670.969 355.834 672.955 359.649 672.239 363.468 672.173 363.773 672.249 364.09 672.445 364.332L675.39 367.87C673.837 370.556 670.504 371.632 667.674 370.361Z"/><path d="M669.058 382 666.569 382 657.868 380.093C657.328 379.975 656.795 380.316 656.677 380.856 656.559 381.396 656.901 381.929 657.44 382.047L666.247 383.977C666.317 383.992 666.389 384 666.461 384L669.058 384C669.832 384 670.458 384.627 670.458 385.4L670.458 387 668.341 387C667.788 387 667.341 387.448 667.341 388 667.341 388.552 667.788 389 668.341 389L671.456 389C672.008 389 672.456 388.553 672.456 388.001L672.458 385.402C672.46 383.525 670.938 382.001 669.061 382 669.06 382 669.059 382 669.058 382Z"/><path d="M624.005 378.027 624.005 376.843C624.005 376.29 623.558 375.843 623.005 375.843 622.453 375.843 622.005 376.29 622.005 376.843L622.005 379.003C622.005 379.556 622.453 380.003 623.005 380.003L623.603 380.003C624.376 380.003 625.003 380.63 625.003 381.403L625.002 383.003 621.347 383.003C620.429 383.005 619.628 382.379 619.407 381.488L618.564 378.118C618.422 377.585 617.875 377.267 617.341 377.409 616.818 377.548 616.501 378.077 616.624 378.604L617.467 381.974C617.91 383.755 619.511 385.006 621.347 385.004L626.001 385.004C626.553 385.004 627 384.557 627.001 384.005L627.003 381.406C627.004 379.683 625.716 378.232 624.005 378.027Z"/><path d="M670.004 362.5C670.004 363.328 669.332 364 668.504 364 667.675 364 667.004 363.328 667.004 362.5 667.004 361.672 667.675 361 668.504 361 669.332 361 670.004 361.672 670.004 362.5Z"/></g></svg>