<svg width="96" height="96" xmlns="http://www.w3.org/2000/svg" xmlns:xlink="http://www.w3.org/1999/xlink" xml:space="preserve" overflow="hidden"><g transform="translate(-592 -312)"><path d="M608.005 375C607.453 375 607.005 375.448 607.005 376L607.005 385C607.005 385.265 607.111 385.519 607.298 385.706L608.125 386.534C608.686 387.097 609 387.859 609 388.653L609 389 604.417 389 603.005 387.585 603.005 347C603.005 346.448 602.557 346 602.005 346 601.453 346 601.005 346.448 601.005 347L601.005 388C601.007 388.263 601.113 388.514 601.3 388.7L603.3 390.7C603.485 390.888 603.736 390.996 604 391L610 391C610.552 391 611 390.552 611 390L611 388.654C611.001 387.329 610.476 386.058 609.54 385.12L609.005 384.583 609.005 377 618.205 377C620.58 376.997 622.627 375.327 623.105 373L644.005 373 644.005 388C644.005 388.265 644.11 388.52 644.298 388.707L646.298 390.707C646.484 390.893 646.737 390.999 647 391L653 391C653.552 391 654 390.552 654 390L654 388.654C654 387.329 653.474 386.058 652.538 385.12L652.003 384.583 652.003 373 656.003 373 656.003 385C656.003 385.265 656.109 385.52 656.296 385.707L657.123 386.536C657.684 387.098 657.999 387.859 658 388.653L658 389 656 389C655.448 389 655 389.448 655 390 655 390.552 655.448 391 656 391L659 391C659.552 391 660 390.552 660 390L660 388.652C660 387.328 659.474 386.057 658.539 385.12L658.003 384.584 658.003 373 658.467 372.967C662.443 371.848 665.196 368.23 665.215 364.1 665.215 360.953 667.792 356.1 671.215 356.1 673.644 356.279 676.004 356.987 678.131 358.174 679.505 358.917 681.219 358.468 682.053 357.148L684.153 353.954C684.975 352.798 684.904 351.231 683.981 350.154L675.881 340.649C674.917 339.52 673.727 338.606 672.388 337.964 674.987 337.769 676.999 335.607 677.006 333L677.006 331C677.006 330.448 676.558 330 676.006 330 675.454 330 675.006 330.448 675.006 331L675.006 333C675.006 334.657 673.663 336 672.006 336L666.006 336C664.349 336 663.006 334.657 663.006 333L663.006 331C663.006 330.448 662.558 330 662.006 330 661.454 330 661.006 330.448 661.006 331L661.006 333C661.012 334.524 661.716 335.961 662.917 336.9L606.207 336.9C603.458 336.779 601.132 338.909 601.01 341.658 601.005 341.772 601.004 341.886 601.007 342L601.007 342C598.247 342.003 596.01 344.24 596.007 347L596.007 369C596.007 369.552 596.455 370 597.007 370 597.559 370 598.007 369.552 598.007 369L598.007 347C598.007 345.343 599.35 344 601.007 344L602.007 344C602.559 344 603.007 343.552 603.007 343L603.007 343 603.007 342C602.958 340.335 604.268 338.945 605.934 338.896 606.025 338.893 606.116 338.894 606.207 338.9L667.757 338.9C670.295 338.9 672.706 340.012 674.352 341.944L682.458 351.451C682.8 351.852 682.81 352.439 682.482 352.851L680.382 356.045C680.122 356.502 679.544 356.667 679.082 356.416 676.663 355.073 673.977 354.282 671.216 354.1 666.406 354.1 663.216 360.119 663.216 364.1 663.172 366.895 661.554 369.426 659.035 370.64 658.51 370.881 657.939 371.004 657.362 371L651.052 371C650.492 370.992 650.028 371.432 650.006 371.991L650.006 385C650.006 385.265 650.111 385.519 650.298 385.706L651.125 386.534C651.686 387.097 652 387.859 652 388.653L652 389 647.417 389 646.005 387.585 646.005 372.009C646.006 371.455 645.559 371.005 645.005 371.001L621.21 371.001 621.21 372.001C621.21 373.658 619.867 375.001 618.21 375.001L608.01 375.001Z"/><path d="M615.006 384.583 615.006 380C615.006 379.448 614.558 379 614.006 379 613.454 379 613.006 379.448 613.006 380L613.006 385C613.006 385.265 613.111 385.519 613.298 385.706L614.125 386.535C614.687 387.096 615.002 387.858 615 388.652L615 389 613 389C612.448 389 612 389.448 612 390 612 390.552 612.448 391 613 391L616 391C616.552 391 617 390.552 617 390L617 388.652C617.003 387.327 616.477 386.055 615.539 385.12Z"/><path d="M674.004 345.5C674.004 346.328 673.332 347 672.504 347 671.676 347 671.004 346.328 671.004 345.5 671.004 344.672 671.676 344 672.504 344 673.332 344 674.004 344.672 674.004 345.5Z"/></g></svg>