<svg width="96" height="96" xmlns="http://www.w3.org/2000/svg" xmlns:xlink="http://www.w3.org/1999/xlink" xml:space="preserve" overflow="hidden"><g transform="translate(-592 -312)"><path d="M656 332 655.6 332C653.085 328.325 649.316 325.694 645 324.6L645 323C645 320.239 642.761 318 640 318 637.239 318 635 320.239 635 323L635 324.6C630.679 325.683 626.906 328.317 624.4 332L624 332C621.794 332.007 620.007 333.794 620 336L620 340.3C620.092 341.807 620.819 343.205 622 344.146L622 394.255C622 399.055 629.907 402.811 640 402.811 650.093 402.811 658 399.053 658 394.255L658 344.146C659.181 343.205 659.908 341.807 660 340.3L660 336C659.993 333.794 658.206 332.007 656 332ZM626.064 333.109C628.295 329.826 631.661 327.484 635.515 326.532L637 326.132 637 323C637 321.343 638.343 320 640 320 641.657 320 643 321.343 643 323L643 326.136 644.485 326.536C648.323 327.51 651.678 329.842 653.929 333.1L654.521 334 654.562 334.074C650.945 335.907 645.635 337 640 337 634.365 337 629.047 335.9 625.427 334.066L625.47 334ZM656 357.255C656 360.355 649.429 363.811 640 363.811 639.448 363.811 639 364.259 639 364.811 639 365.363 639.448 365.811 640 365.811 647.059 365.811 653.037 363.97 656 361.224L656 367.255C656 369.166 653.583 371.14 649.691 372.405 649.159 372.552 648.846 373.103 648.993 373.635 649.14 374.168 649.691 374.48 650.224 374.333 650.252 374.325 650.281 374.315 650.309 374.305 652.399 373.701 654.339 372.662 656 371.257L656 377.257C656 380.357 649.429 383.813 640 383.813 639.448 383.813 639 384.261 639 384.813 639 385.365 639.448 385.813 640 385.813 647.059 385.813 653.037 383.972 656 381.226L656 394.255C656 397.355 649.429 400.811 640 400.811 630.571 400.811 624 397.356 624 394.255L624 345.609C627.656 347.782 633.466 349.2 640 349.2 646.534 349.2 652.344 347.782 656 345.609ZM658 340.3C658 343.181 651.152 347.2 640 347.2 628.848 347.2 622 343.181 622 340.3L622 336C622.001 335.502 622.19 335.023 622.528 334.658 626.4 337.381 632.875 339 640 339 647.025 339 653.641 337.343 657.472 334.658 657.81 335.023 657.999 335.502 658 336Z"/></g></svg>