<svg width="96" height="96" xmlns="http://www.w3.org/2000/svg" xmlns:xlink="http://www.w3.org/1999/xlink" xml:space="preserve" overflow="hidden"><g transform="translate(-592 -312)"><path d="M671.016 359.5 668.281 359.5C667.167 355.559 665.532 351.784 663.42 348.275 660.858 342.85 655.627 339.177 649.654 338.61 649.112 338.521 648.562 338.485 648.013 338.501 647.472 338.488 646.931 338.513 646.393 338.574L646.33 338.552C646.228 338.519 646.121 338.501 646.013 338.501L621.013 338.501C615.16 338.39 609.779 341.699 607.239 346.973 604.763 346.835 602.868 344.716 603.006 342.24 603.139 339.854 605.117 337.991 607.506 338 608.058 338 608.506 337.552 608.506 337 608.506 336.448 608.058 336 607.506 336 603.916 336.017 601.02 338.942 601.038 342.532 601.053 345.659 603.293 348.332 606.369 348.894 606.334 348.985 606.294 349.086 606.269 349.166 605.256 352.045 604.903 355.115 605.236 358.149 606.028 362.936 608.867 367.141 613.011 369.664L613.011 383.006C613.011 383.271 613.116 383.526 613.304 383.713L615.304 385.713C615.492 385.901 615.747 386.006 616.012 386.006L622.012 386.006C622.564 386.006 623.012 385.558 623.012 385.006L623.012 383.662C623.015 382.336 622.489 381.064 621.549 380.128L621.014 379.592 621.014 372.484C621.648 372.558 622.286 372.598 622.924 372.602L639.014 372.602 639.014 383.002C639.014 383.267 639.119 383.521 639.307 383.709L641.307 385.709C641.495 385.897 641.75 386.002 642.015 386.002L648.015 386.002C648.567 386.002 649.015 385.554 649.015 385.002L649.015 383.662C649.019 382.336 648.492 381.064 647.553 380.128L647.018 379.592 647.018 372.6 649.758 372.6 651.018 373.368 651.018 380.004C651.018 380.269 651.123 380.523 651.311 380.711L652.138 381.54C652.701 382.101 653.017 382.864 653.015 383.659L653.015 384.004 651.015 384.004C650.463 384.004 650.015 384.452 650.015 385.004 650.015 385.556 650.463 386.004 651.015 386.004L654.015 386.004C654.567 386.004 655.015 385.556 655.015 385.004L655.015 383.661C655.018 382.336 654.492 381.064 653.553 380.128L653.018 379.592 653.018 374.592 665.603 382.26C666.996 383.107 668.596 383.552 670.226 383.545 670.977 383.544 671.726 383.455 672.457 383.279 674.769 382.723 676.761 381.26 677.984 379.221L678.884 377.721C679.166 377.251 679.017 376.641 678.549 376.354L675.749 374.635 673.85 369.5 679.017 369.5C679.569 369.5 680.017 369.052 680.017 368.5 680.011 363.532 675.984 359.505 671.016 359.5ZM614.5 368.273C610.617 366.078 607.937 362.243 607.21 357.842 606.931 355.139 607.252 352.407 608.15 349.842 609.15 347.035 612.403 340.506 621.01 340.506L645.851 340.506 646 340.55C646.165 340.604 646.342 340.616 646.513 340.582 647.01 340.511 647.512 340.484 648.013 340.501 648.448 340.486 648.883 340.513 649.313 340.582 649.348 340.589 649.384 340.594 649.42 340.597 654.737 341.096 659.391 344.374 661.652 349.212 663.822 352.808 665.469 356.695 666.544 360.755 666.659 361.195 667.057 361.502 667.512 361.502L671.012 361.502C674.49 361.506 677.44 364.06 677.942 367.502L672.412 367.502C671.86 367.502 671.412 367.95 671.413 368.503 671.413 368.62 671.433 368.737 671.474 368.847L673.974 375.647C674.052 375.858 674.199 376.037 674.39 376.155L676.646 377.537 676.26 378.181C675.321 379.769 673.776 380.906 671.98 381.33 670.164 381.779 668.245 381.499 666.633 380.549L654.526 373.149 650.539 370.749C650.383 370.655 650.205 370.606 650.023 370.606L646.009 370.606C645.457 370.606 645.009 371.054 645.009 371.606L645.009 380.006C645.009 380.271 645.114 380.525 645.301 380.713L646.129 381.542C646.692 382.103 647.008 382.867 647.006 383.662L647.006 384.006 642.42 384.006 641.008 382.592 641.008 371.6C641.008 371.048 640.56 370.6 640.008 370.6L622.918 370.6C622.002 370.6 621.087 370.518 620.185 370.356L620.008 370.339C619.456 370.339 619.008 370.787 619.008 371.339L619.008 380.004C619.008 380.269 619.113 380.523 619.301 380.711L620.128 381.54C620.692 382.101 621.008 382.864 621.006 383.66L621.006 384.004 616.42 384.004 615.008 382.59 615.008 369.123C615.003 368.769 614.81 368.445 614.5 368.273Z"/><path d="M627.009 379.592 627.009 374.6C627.009 374.048 626.561 373.6 626.009 373.6 625.457 373.6 625.009 374.048 625.009 374.6L625.009 380C625.009 380.265 625.114 380.519 625.301 380.707L626.129 381.536C626.692 382.097 627.008 382.86 627.006 383.655L627.006 384 625.006 384C624.454 384 624.006 384.448 624.006 385 624.006 385.552 624.454 386 625.006 386L628.006 386C628.558 386 629.006 385.552 629.006 385L629.006 383.661C629.01 382.335 628.483 381.063 627.544 380.128Z"/><path d="M671.004 371.5C671.004 372.328 670.332 373 669.504 373 668.676 373 668.004 372.328 668.004 371.5 668.004 370.672 668.676 370 669.504 370 670.332 370 671.004 370.672 671.004 371.5Z"/></g></svg>